<svg xmlns="http://www.w3.org/2000/svg" viewBox="0 0 269.76 256.77"><defs><style>.cls-1{isolation:isolate;}.cls-10,.cls-11,.cls-2{fill:#ff0;}.cls-2,.cls-3{fill-rule:evenodd;}.cls-3{fill:red;}.cls-4,.cls-8{fill:#fff;}.cls-5{fill:#6cf;}.cls-6{font-size:15px;}.cls-6,.cls-7{font-family:SimHei, SimHei;}.cls-11,.cls-7{font-size:14px;}.cls-10,.cls-12,.cls-8,.cls-9{stroke:#000;stroke-width:0.5px;}.cls-10,.cls-8,.cls-9{stroke-miterlimit:10;}.cls-12,.cls-9{fill:none;}.cls-11{font-family:STZhongsong, STZhongsong;}</style></defs><title>安全局徽章_ok</title><g id="多边形_3" data-name="多边形 3" class="cls-1"><g id="多边形_3-2" data-name="多边形 3"><polygon class="cls-2" points="51.17 169.44 83.23 71.3 187 71.3 219.07 169.44 135.12 230.09 51.17 169.44"/><path d="M187.16,71.67l32,97.79-83.66,60.45L51.81,169.46l32-97.79h103.4m.37-.5H83.39L51.22,169.66l84.24,60.86,84.24-60.86L187.53,71.17Z" transform="translate(-0.34 -0.12)"/></g></g><g id="多边形_2" data-name="多边形 2" class="cls-1"><g id="多边形_2-2" data-name="多边形 2"><polygon class="cls-3" points="67.49 163.85 0.53 98.25 93.23 84.57 134.88 0.56 176.52 84.57 269.22 98.25 202.26 163.85 217.91 256.32 134.88 212.85 51.85 256.32 67.49 163.85"/><path d="M135.22,1.25l41.36,83.44.12.23.26,0L269,98.55l-66.51,65.16-.18.18,0,.26L217.92,256l-82.47-43.16-.23-.13-.23.13L52.52,256l15.54-91.83,0-.26-.18-.18L1.41,98.55,93.48,85l.26,0,.12-.23L135.22,1.25m0-1.13L93.41,84.46.34,98.2l67.23,65.86L51.86,256.89l83.36-43.63,83.36,43.63-15.71-92.83L270.1,98.2,177,84.46,135.22.12Z" transform="translate(-0.34 -0.12)"/></g></g><g id="椭圆_1" data-name="椭圆 1" class="cls-1"><g id="椭圆_1-2" data-name="椭圆 1"><circle class="cls-4" cx="135.34" cy="142.32" r="70.91" transform="translate(-27.17 253) rotate(-80.78)"/><path d="M135.34,71.66a70.66,70.66,0,1,1-70.66,70.66,70.74,70.74,0,0,1,70.66-70.66m0-.5a71.16,71.16,0,1,0,71.16,71.16,71.16,71.16,0,0,0-71.16-71.16Z" transform="translate(-0.34 -0.12)"/></g></g><g id="椭圆_2" data-name="椭圆 2" class="cls-1"><g id="椭圆_2-2" data-name="椭圆 2"><circle class="cls-5" cx="134.84" cy="142.6" r="52.97"/><path d="M135.18,90a52.72,52.72,0,1,1-52.72,52.72A52.79,52.79,0,0,1,135.18,90m0-.5a53.22,53.22,0,1,0,53.23,53.22A53.22,53.22,0,0,0,135.18,89.5Z" transform="translate(-0.34 -0.12)"/></g></g><g id="图层_14" data-name="图层 14"><text class="cls-6" transform="translate(67.58 143.77) rotate(85.65)"> </text><text class="cls-6" transform="translate(68.24 151.88) rotate(78.7)"> </text><text class="cls-6" transform="matrix(0.31, 0.95, -0.95, 0.31, 69.86, 159.85)"> </text><text class="cls-6" transform="matrix(0.43, 0.9, -0.9, 0.43, 72.46, 167.57)"> </text><text class="cls-6" transform="translate(75.96 174.9) rotate(57.79)"> </text><text class="cls-6" transform="translate(80.28 182.23) rotate(47.41)">·</text><text class="cls-6" transform="translate(91.42 194.12) rotate(33.61)">济</text><text class="cls-6" transform="translate(105.1 203.02) rotate(19.69)">南</text><text class="cls-6" transform="matrix(0.99, 0.1, -0.1, 0.99, 120.51, 208.36)">舜</text><text class="cls-6" transform="matrix(0.99, -0.14, 0.14, 0.99, 136.75, 209.84)">耕</text><text class="cls-6" transform="matrix(0.93, -0.37, 0.37, 0.93, 152.9, 207.41)">中</text><text class="cls-6" transform="translate(167.95 201.17) rotate(-35.85)">学</text><text class="cls-6" transform="matrix(0.65, -0.76, 0.76, 0.65, 181.08, 191.49)">·</text><text class="cls-7" transform="translate(85.05 117.92) rotate(-56.52)">二</text><text class="cls-7" transform="translate(92.44 106.64) rotate(-42.61)">十</text><text class="cls-7" transform="translate(102.3 97.48) rotate(-28.69)">八</text><text class="cls-7" transform="matrix(0.97, -0.25, 0.25, 0.97, 114.06, 90.96)">级</text><text class="cls-7" transform="translate(127.08 87.53) rotate(-0.93)">十</text><text class="cls-7" transform="translate(140.54 87.26) rotate(13.18)">班</text><text class="cls-7" transform="matrix(0.89, 0.46, -0.46, 0.89, 153.67, 90.27)">安</text><text class="cls-7" transform="translate(165.67 96.39) rotate(41.2)">全</text><text class="cls-7" transform="translate(175.84 105.2) rotate(55.08)">局</text></g><g id="图层_11" data-name="图层 11"><circle cx="134.98" cy="191.06" r="4.22"/><path d="M133.55,193.72" transform="translate(-0.34 -0.12)"/><polygon points="133.4 193.59 131.56 173.19 121.39 173.19 121.39 171.37 148.71 171.37 148.71 173.19 138.34 173.19 136.69 193.59 135.05 193.59 133.4 193.59"/><polygon class="cls-8" points="131.56 171.37 133.21 103.18 134.98 99.66 136.6 103.18 138.34 171.37 131.56 171.37"/><line class="cls-9" x1="134.98" y1="99.66" x2="134.98" y2="171.37"/></g><g id="图层_12" data-name="图层 12"><path class="cls-10" d="M116.9,113.69c1.68-4.49,5.56-4.25,5.56-4.25A5.32,5.32,0,0,1,116.9,114" transform="translate(-0.34 -0.12)"/><path class="cls-10" d="M113.14,117.77l2.11-.6s5.62,1.35,7.21-2.22c0,0-3.11-2.13-7.3,1.8l-1.68.67" transform="translate(-0.34 -0.12)"/><path class="cls-10" d="M118.2,118.49a8.19,8.19,0,0,0-8.28,3.82,6.79,6.79,0,0,0,3.28.18C115.14,122.16,118.37,119.27,118.2,118.49Z" transform="translate(-0.34 -0.12)"/><path class="cls-10" d="M106.89,129l.65-.39a7.58,7.58,0,0,1,8-4.56s1.06,5.35-7.87,5a1.75,1.75,0,0,0-1.27,1.24" transform="translate(-0.34 -0.12)"/><path class="cls-10" d="M111,129.41s-3.75.56-5.42,8.31l-.34.22v.74l.59-.84A9.83,9.83,0,0,0,111,129.41Z" transform="translate(-0.34 -0.12)"/><path class="cls-10" d="M111.77,138.08s-5.2-.26-5.38,8.91l-.34.34s.13,1.71.37,1.78.16-2,.16-2S112.86,143.83,111.77,138.08Z" transform="translate(-0.34 -0.12)"/><path class="cls-4" d="M110.71,132.33" transform="translate(-0.34 -0.12)"/><path class="cls-10" d="M113.83,144.9s-4.73,1.15-5.57,8.52A11.07,11.07,0,0,0,113.83,144.9Z" transform="translate(-0.34 -0.12)"/><path class="cls-10" d="M114.17,149.93s-4.73,2.24-2,10.72C112.19,160.65,117.59,154.21,114.17,149.93Z" transform="translate(-0.34 -0.12)"/><path class="cls-10" d="M118.39,154s-4.83,3.39-1.14,11.74C117.25,165.75,122,157.66,118.39,154Z" transform="translate(-0.34 -0.12)"/><path class="cls-10" d="M120.51,158.22c-.78-.49-2,5.07,3,11.48C123.56,169.7,124.47,160.72,120.51,158.22Z" transform="translate(-0.34 -0.12)"/><path class="cls-10" d="M115.54,108.75s-4.26.27-2.7,7a8.36,8.36,0,0,0-.68,2.29l.79-.77.19-1.24A6.77,6.77,0,0,0,115.54,108.75Z" transform="translate(-0.34 -0.12)"/><path class="cls-10" d="M108.65,112.44a7.79,7.79,0,0,0-.34,8.86l0,3,.41-1.16v-1.93S111.43,115.64,108.65,112.44Z" transform="translate(-0.34 -0.12)"/><path class="cls-10" d="M104.65,119.84s-3.15,4.08.67,9.57l.07,2.67.66-1.13-.23-.75-.1-1.08S108.59,123.28,104.65,119.84Z" transform="translate(-0.34 -0.12)"/><path class="cls-10" d="M98.14,127.5s-1.25,5.85,5.07,8.69l1.2,1.89.24-.69-.2-.1-.84-1.07S103.52,128.1,98.14,127.5Z" transform="translate(-0.34 -0.12)"/><path class="cls-10" d="M97.47,135.44s-1.06,4.31,6,8.15l1.65,1.95.11-1.08-.51-.21-.86-1S103.12,136.22,97.47,135.44Z" transform="translate(-0.34 -0.12)"/><path class="cls-10" d="M97.41,146.68s.64,5.33,8.4,5.57l1.77,1.76v-1.16l-.64-.15-1.07-.72S103,146.23,97.41,146.68Z" transform="translate(-0.34 -0.12)"/><path class="cls-10" d="M99.36,155s1.68,6.08,10.3,5.45l3,1.26-.7-1-.68,0-1.46-.6S106.24,153.69,99.36,155Z" transform="translate(-0.34 -0.12)"/><path class="cls-10" d="M103.61,165.75s3.48-3.79,11.3.25h2.17l.34.24-.28.32H115S107.55,169,103.61,165.75Z" transform="translate(-0.34 -0.12)"/><path class="cls-10" d="M111.61,172a8.51,8.51,0,0,1,11.19-.87l2.56-.09.43.39-.85-.08-1.93,0S117.36,176.16,111.61,172Z" transform="translate(-0.34 -0.12)"/><path class="cls-10" d="M116.9,114s-3.6,3.4-3.76,3.78-2.91,3.46-3.22,4.54-2.49,3.13-3.56,7.89a49,49,0,0,0-1.17,8.48s.68,9.75,1.23,10.43,1,3.63,1.84,4.47,2.37,5.72,4,7.07c0,0,3.77,4.93,7.54,7s8.79,5.07,15.47,5a16.92,16.92,0,0,1,8.76,3.72s.18.8-.7.72c0,0-1.52-2.43-8.06-3.41,0,0-7.59-.88-12-3.14,0,0-8.54-4.72-11.38-9.17,0,0-5.08-6.78-5-8.69,0,0-1.8-5.45-2.14-7.56s-.56-7.68-.25-8.38c0,0,1.15-8.32,3.06-11.63,0,0,4-7.08,5.34-7.82a44.48,44.48,0,0,1,4-3.62l.32.12Z" transform="translate(-0.34 -0.12)"/><path class="cls-10" d="M153.69,113.48c-1.68-4.49-5.56-4.25-5.56-4.25a5.32,5.32,0,0,0,5.56,4.55" transform="translate(-0.34 -0.12)"/><path class="cls-10" d="M157.45,117.56l-2.11-.6s-5.62,1.35-7.21-2.22c0,0,3.11-2.13,7.3,1.8l1.68.67" transform="translate(-0.34 -0.12)"/><path class="cls-10" d="M152.39,118.28a8.19,8.19,0,0,1,8.28,3.82,6.87,6.87,0,0,1-3.28.17C155.45,122,152.22,119.05,152.39,118.28Z" transform="translate(-0.34 -0.12)"/><path class="cls-10" d="M163.7,128.75l-.65-.39a7.58,7.58,0,0,0-8-4.56s-1.06,5.35,7.87,5a1.75,1.75,0,0,1,1.27,1.24" transform="translate(-0.34 -0.12)"/><path class="cls-10" d="M159.64,129.2s3.75.56,5.42,8.31l.34.22v.74l-.59-.84A9.83,9.83,0,0,1,159.64,129.2Z" transform="translate(-0.34 -0.12)"/><path class="cls-10" d="M158.82,137.87s5.2-.26,5.38,8.91l.34.34s-.13,1.71-.37,1.77-.16-2-.16-2S157.73,143.62,158.82,137.87Z" transform="translate(-0.34 -0.12)"/><path class="cls-4" d="M159.88,132.12" transform="translate(-0.34 -0.12)"/><path class="cls-10" d="M156.76,144.68s4.73,1.16,5.57,8.52A11,11,0,0,1,156.76,144.68Z" transform="translate(-0.34 -0.12)"/><path class="cls-10" d="M156.42,149.72s4.73,2.23,2,10.72C158.4,160.44,153,154,156.42,149.72Z" transform="translate(-0.34 -0.12)"/><path class="cls-10" d="M152.2,153.8s4.83,3.39,1.14,11.74C153.34,165.54,148.57,157.45,152.2,153.8Z" transform="translate(-0.34 -0.12)"/><path class="cls-10" d="M150.08,158c.78-.49,2,5.06-3.05,11.48C147,169.49,146.12,160.51,150.08,158Z" transform="translate(-0.34 -0.12)"/><path class="cls-10" d="M155.05,108.54s4.26.27,2.7,7a8.25,8.25,0,0,1,.68,2.29l-.79-.77-.19-1.24A6.77,6.77,0,0,1,155.05,108.54Z" transform="translate(-0.34 -0.12)"/><path class="cls-10" d="M161.94,112.22a7.81,7.81,0,0,1,.34,8.87l0,3-.41-1.16V121S159.16,115.43,161.94,112.22Z" transform="translate(-0.34 -0.12)"/><path class="cls-10" d="M165.94,119.62s3.15,4.09-.67,9.58l-.07,2.67-.66-1.13.23-.75.1-1.08S162,123.07,165.94,119.62Z" transform="translate(-0.34 -0.12)"/><path class="cls-10" d="M172.45,127.29s1.25,5.84-5.07,8.69l-1.2,1.89-.24-.69.2-.1L167,136S167.07,127.89,172.45,127.29Z" transform="translate(-0.34 -0.12)"/><path class="cls-10" d="M173.12,135.23s1.06,4.31-6,8.15l-1.65,2-.11-1.08.51-.21.86-1S167.47,136,173.12,135.23Z" transform="translate(-0.34 -0.12)"/><path class="cls-10" d="M173.18,146.47s-.64,5.33-8.4,5.57L163,153.8v-1.16l.64-.15,1.07-.72S167.58,146,173.18,146.47Z" transform="translate(-0.34 -0.12)"/><path class="cls-10" d="M171.23,154.77s-1.68,6.08-10.3,5.45l-3.05,1.26.7-1,.68,0,1.46-.6S164.35,153.48,171.23,154.77Z" transform="translate(-0.34 -0.12)"/><path class="cls-10" d="M167,165.54s-3.48-3.79-11.3.25h-2.17l-.34.24.28.31h2.19S163,168.8,167,165.54Z" transform="translate(-0.34 -0.12)"/><path class="cls-10" d="M159,171.75a8.51,8.51,0,0,0-11.19-.87l-2.56-.09-.43.39.85-.09,1.93,0S153.23,176,159,171.75Z" transform="translate(-0.34 -0.12)"/><path class="cls-10" d="M153.69,113.78s3.6,3.4,3.76,3.78,2.91,3.46,3.22,4.54,2.49,3.13,3.56,7.89a49,49,0,0,1,1.17,8.48s-.68,9.75-1.23,10.42-1,3.64-1.84,4.48-2.37,5.72-4,7.07c0,0-3.77,4.93-7.54,7s-8.79,5.07-15.47,5a16.92,16.92,0,0,0-8.76,3.72s-.18.79.7.71c0,0,1.52-2.42,8.06-3.4,0,0,7.59-.88,12-3.14,0,0,8.54-4.72,11.38-9.17,0,0,5.08-6.78,5-8.69,0,0,1.8-5.46,2.14-7.56s.56-7.68.25-8.38c0,0-1.15-8.32-3.06-11.63,0,0-4-7.09-5.34-7.82a44.48,44.48,0,0,0-3.95-3.62l-.32.12Z" transform="translate(-0.34 -0.12)"/></g><g id="多边形_4" data-name="多边形 4" class="cls-1"><g id="多边形_4-2" data-name="多边形 4"><polygon class="cls-3" points="128.26 144.84 118.57 137.42 130.77 137.1 134.84 125.59 138.91 137.1 151.11 137.42 141.42 144.84 144.9 156.55 134.84 149.63 124.78 156.55 128.26 144.84"/><path d="M135.18,126.47,139,137.15l.11.32h.35l11.32.29-9,6.89-.27.21.09.33,3.23,10.86-9.33-6.42-.29-.2-.28.2-9.33,6.42,3.22-10.86.1-.33-.27-.21-9-6.89,11.33-.29h.34l.12-.32,3.77-10.68m0-1.51-4.24,12-12.74.33,10.11,7.75-3.63,12.22,10.5-7.23,10.5,7.23-3.63-12.22,10.12-7.75L139.43,137l-4.25-12Z" transform="translate(-0.34 -0.12)"/></g></g><g id="图层_13" data-name="图层 13"><line class="cls-9" x1="135" y1="126.09" x2="135" y2="142.2"/><line class="cls-9" x1="119.08" y1="137.52" x2="135" y2="142.2"/><line class="cls-9" x1="125.17" y1="155.98" x2="135" y2="142.2"/><line class="cls-9" x1="144.4" y1="155.86" x2="135" y2="142.2"/><line class="cls-9" x1="150.76" y1="137.56" x2="135" y2="142.2"/></g><g id="S"><text class="cls-11" transform="translate(130.08 146.53)">S</text></g><g id="图层_15" data-name="图层 15"><line class="cls-12" x1="134.88" y1="1.12" x2="134.88" y2="71.04"/><line class="cls-12" x1="0.89" y1="98.4" x2="67.37" y2="120.05"/><line class="cls-12" x1="268.68" y1="98.34" x2="202.17" y2="119.29"/><line class="cls-12" x1="52.02" y1="256.07" x2="92.39" y2="199"/><line class="cls-12" x1="176.48" y1="199.79" x2="217.8" y2="255.44"/><line class="cls-12" x1="135.1" y1="213.37" x2="134.99" y2="229.91"/><line class="cls-12" x1="202.73" y1="164.09" x2="218.93" y2="169.37"/><line class="cls-12" x1="67.42" y1="163.94" x2="51.31" y2="169.29"/><line class="cls-12" x1="176.65" y1="84.5" x2="186.97" y2="71.3"/><line class="cls-12" x1="83.28" y1="71.24" x2="93.01" y2="84.39"/></g></svg>